<svg width="6390" height="6272" viewBox="0 0 6390 6272" fill="none" xmlns="http://www.w3.org/2000/svg">
<path d="M6389.56 4219.87H3938.65V2801.58H6389.56V4219.87ZM3953.61 4204.92H6374.61V2816.53H3953.61V4204.92Z" fill="#E0E0E0"/>
<path d="M5883.94 3557.83H4266.91V3605.24H5883.94V3557.83Z" fill="#F0F0F0"/>
<path d="M5995.36 3734.59H4266.91V3786.34H5995.36V3734.59Z" fill="#F0F0F0"/>
<path d="M5995.36 3913.45H4266.91V3965.19H5995.36V3913.45Z" fill="#F0F0F0"/>
<path d="M4832.04 3301.06H4266.91V3424.14H4832.04V3301.06Z" fill="#F0F0F0"/>
<path d="M6382.08 2809.06H3946.58V3034.87H6382.08V2809.06Z" fill="#E0E0E0"/>
<path d="M6194.7 3001.07C6191.56 2998.08 6222.97 2960.25 6264.69 2916.58C6306.41 2872.91 6343.05 2839.86 6346.04 2842.7C6349.03 2845.54 6317.78 2883.53 6276.05 2927.35C6234.33 2971.16 6197.69 3004.06 6194.7 3001.07Z" fill="white"/>
<path d="M6346.34 3001.07C6343.35 3004.06 6306.86 2971.16 6264.99 2927.35C6223.12 2883.53 6191.86 2845.69 6195 2842.7C6198.14 2839.71 6234.48 2872.61 6276.35 2916.58C6318.23 2960.55 6349.18 2998.08 6346.34 3001.07Z" fill="white"/>
<path d="M3373.67 0.436523H938.168V1403.92H3373.67V0.436523Z" fill="#E6E6E6"/>
<path d="M2875.68 749.362H1258.64V796.768H2875.68V749.362Z" fill="#F0F0F0"/>
<path d="M2987.09 926.125H1258.64V977.868H2987.09V926.125Z" fill="#F0F0F0"/>
<path d="M2987.09 1104.98H1258.64V1156.72H2987.09V1104.98Z" fill="#F0F0F0"/>
<path d="M1823.78 492.592H1258.64V615.668H1823.78V492.592Z" fill="#F0F0F0"/>
<path d="M3373.67 0.436523H938.168V226.251H3373.67V0.436523Z" fill="#E0E0E0"/>
<path d="M3178.06 191.406C3174.92 188.565 3206.33 150.58 3248.05 106.913C3289.77 63.2457 3326.41 30.1961 3329.4 33.187C3332.4 36.178 3301.14 74.013 3259.42 117.68C3217.69 161.348 3181.06 194.098 3178.06 191.406Z" fill="white"/>
<path d="M3329.41 191.407C3326.41 194.398 3289.93 161.498 3248.05 117.681C3206.18 73.8637 3174.92 36.1782 3178.07 33.1873C3181.21 30.1964 3217.54 63.0964 3259.42 106.913C3301.29 150.73 3332.55 188.565 3329.41 191.407Z" fill="white"/>
<path d="M2451.27 2607.62H0.814453V1189.18H2451.27V2607.62ZM15.769 2592.66H2436.32V1204.13H15.769V2592.66Z" fill="#E0E0E0"/>
<path d="M1945.81 1945.58H328.768V1992.98H1945.81V1945.58Z" fill="#F0F0F0"/>
<path d="M2057.22 2122.34H328.768V2174.08H2057.22V2122.34Z" fill="#F0F0F0"/>
<path d="M2057.22 2301.2H328.768V2352.94H2057.22V2301.2Z" fill="#F0F0F0"/>
<path d="M893.901 1688.81H328.768V1811.88H893.901V1688.81Z" fill="#F0F0F0"/>
<path d="M2443.79 1196.65H8.29102V1422.47H2443.79V1196.65Z" fill="#E0E0E0"/>
<path d="M5279.33 2932.58H2403.57V5507.16H5279.33V2932.58Z" fill="#E6E6E6"/>
<path d="M2548.18 2121.59H295.42V4462.13H2548.18V2121.59Z" fill="#F0F0F0"/>
<path d="M2548.18 2121.59H295.42V2376.57H2548.18V2121.59Z" fill="#E0E0E0"/>
<path d="M481.455 2246.46C481.045 2255.71 477.929 2264.63 472.493 2272.12C467.058 2279.61 459.542 2285.34 450.879 2288.6C442.216 2291.86 432.787 2292.5 423.762 2290.45C414.738 2288.4 406.514 2283.74 400.113 2277.05C393.712 2270.37 389.415 2261.95 387.755 2252.85C386.095 2243.74 387.145 2234.35 390.775 2225.84C394.405 2217.32 400.455 2210.06 408.175 2204.96C415.894 2199.85 424.943 2197.12 434.198 2197.11C446.997 2197.43 459.152 2202.79 468.006 2212.04C476.861 2221.29 481.696 2233.66 481.455 2246.46Z" fill="white"/>
<path d="M673.321 2246.46C672.94 2255.75 669.835 2264.73 664.393 2272.27C658.951 2279.81 651.412 2285.58 642.715 2288.86C634.017 2292.15 624.545 2292.81 615.477 2290.75C606.409 2288.7 598.146 2284.02 591.715 2277.31C585.285 2270.59 580.971 2262.13 579.311 2252.99C577.65 2243.84 578.717 2234.4 582.378 2225.85C586.039 2217.31 592.132 2210.03 599.9 2204.92C607.668 2199.81 616.767 2197.09 626.065 2197.11C638.863 2197.43 651.018 2202.79 659.872 2212.04C668.727 2221.29 673.562 2233.66 673.321 2246.46Z" fill="white"/>
<path d="M865.188 2246.46C864.807 2255.75 861.702 2264.73 856.26 2272.27C850.818 2279.81 843.279 2285.58 834.582 2288.86C825.885 2292.15 816.412 2292.81 807.345 2290.75C798.277 2288.7 790.013 2284.02 783.583 2277.31C777.152 2270.59 772.838 2262.13 771.178 2252.99C769.518 2243.84 770.584 2234.4 774.245 2225.85C777.906 2217.31 784 2210.03 791.767 2204.92C799.535 2199.81 808.634 2197.09 817.932 2197.11C830.731 2197.43 842.885 2202.79 851.74 2212.04C860.594 2221.29 865.429 2233.66 865.188 2246.46Z" fill="white"/>
<path d="M6067.89 512.332H3192.12V3378.53H6067.89V512.332Z" fill="#F0F0F0"/>
<path d="M6067.89 512.332H3192.12V848.062H6067.89V512.332Z" fill="#E0E0E0"/>
<path d="M3437.08 676.832C3436.55 689.037 3432.45 700.819 3425.28 710.714C3418.12 720.609 3408.21 728.182 3396.77 732.491C3385.34 736.801 3372.9 737.659 3360.98 734.957C3349.07 732.255 3338.21 726.114 3329.76 717.295C3321.3 708.476 3315.63 697.368 3313.43 685.35C3311.23 673.332 3312.62 660.934 3317.4 649.696C3322.19 638.457 3330.18 628.872 3340.37 622.131C3350.56 615.391 3362.5 611.791 3374.72 611.78C3391.6 612.172 3407.64 619.238 3419.33 631.429C3431.02 643.621 3437.4 659.946 3437.08 676.832Z" fill="white"/>
<path d="M3671.42 632.866C3679.71 641.869 3685.16 653.113 3687.11 665.196C3689.06 677.279 3687.4 689.668 3682.36 700.819C3677.31 711.969 3669.09 721.388 3658.73 727.902C3648.37 734.416 3636.32 737.737 3624.09 737.452C3611.85 737.166 3599.97 733.287 3589.92 726.297C3579.88 719.306 3572.11 709.514 3567.59 698.141C3563.07 686.767 3562 674.315 3564.5 662.335C3567.01 650.356 3572.99 639.379 3581.69 630.772C3593.88 619.174 3610.17 612.882 3626.99 613.274C3643.8 613.667 3659.78 620.712 3671.42 632.866Z" fill="white"/>
<path d="M3942.24 676.832C3941.72 689.037 3937.62 700.819 3930.45 710.714C3923.29 720.609 3913.37 728.182 3901.94 732.491C3890.51 736.801 3878.06 737.659 3866.15 734.957C3854.24 732.255 3843.38 726.114 3834.92 717.295C3826.47 708.476 3820.79 697.368 3818.6 685.35C3816.4 673.332 3817.78 660.934 3822.57 649.696C3827.36 638.457 3835.34 628.872 3845.53 622.131C3855.72 615.391 3867.67 611.791 3879.88 611.78C3896.77 612.172 3912.81 619.238 3924.5 631.429C3936.18 643.621 3942.56 659.946 3942.24 676.832Z" fill="white"/>
<path d="M5446.67 6267.6C5446.67 6269.69 4408.23 6271.49 3127.67 6271.49C1847.11 6271.49 808.213 6269.69 808.213 6267.6C808.213 6265.51 1846.51 6263.71 3127.67 6263.71C4408.83 6263.71 5446.67 6265.66 5446.67 6267.6Z" fill="#263238"/>
<path d="M4434.85 4436.86C4203.8 4275.5 4151.46 3975.96 4160.58 3706.63C4162.07 3661.77 4157.14 3614.21 4178.53 3574.88C4199.91 3535.55 4249.86 3508.48 4290.09 3527.32C4323.43 3543.03 4337.94 3581.91 4356.63 3614.06C4381.58 3656.88 4418.13 3691.78 4462.06 3714.71C4490.63 3729.66 4526.07 3738.63 4554.33 3723.08C4593.22 3701.69 4597.7 3648.31 4597.4 3603.44C4597.4 3520 4596.9 3436.65 4595.91 3353.4C4593.22 3308.7 4597.76 3263.86 4609.37 3220.61C4623.27 3178.13 4654.23 3138.8 4696.55 3126.84C4738.87 3114.88 4791.66 3139.55 4801.23 3183.22C4802.88 3201.71 4803.33 3220.3 4802.58 3238.85C4803.78 3257.54 4812.45 3278.03 4829.95 3283.71C4847.44 3289.4 4865.69 3276.39 4879.15 3263.23C4925.21 3218.36 4956.61 3159.89 4985.77 3102.17C5014.93 3044.44 5043.5 2985.07 5085.37 2935.87C5127.24 2886.67 5185.12 2847.64 5249.87 2843.9C5314.62 2840.16 5382.07 2879.94 5398.22 2942.75C5414.37 3005.56 5377.73 3069.71 5338.4 3120.71C5279.05 3196.4 5209.09 3263.14 5130.68 3318.86C5115.38 3327.21 5103.16 3340.27 5095.84 3356.09C5086.12 3386 5114.38 3415.91 5143.84 3425.33C5177.19 3436.4 5213.38 3432.96 5248.52 3437.15C5283.67 3441.33 5321.05 3456.59 5334.36 3489.49C5352.61 3535.25 5314.33 3583.1 5276.79 3614.51C5201.42 3677.32 5115.83 3726.74 5023.76 3760.62C4990.86 3772.58 4956.31 3783.2 4929.69 3806.23C4903.07 3829.26 4887.22 3869.48 4903.22 3901.04C4919.23 3932.59 4960.35 3942.61 4994.9 3936.18C5029.44 3929.75 5060.1 3911.21 5093 3898.8C5154.46 3875.62 5233.72 3879.8 5272.45 3932.89C5284.45 3951.18 5292.05 3972 5294.64 3993.72C5297.24 4015.44 5294.76 4037.46 5287.41 4058.06C5272.44 4099.06 5249.4 4136.64 5219.66 4168.58C5121.72 4285.6 4994.45 4374.52 4850.88 4426.24C4708.37 4475.59 4576.32 4489.05 4434.7 4437.16" fill="#FF4343"/>
<path d="M5332.42 2880.84C5332.42 2880.84 5331.07 2882.33 5328.08 2885.02L5314.77 2896.84C5303.11 2907.31 5285.91 2922.56 5264.23 2942.75C5202.75 2999.83 5145.66 3061.47 5093.45 3127.14C5060.1 3168.56 5025.55 3215.52 4988.76 3266.52C4951.98 3317.51 4913.99 3372.54 4876.31 3431.02C4836.13 3492.68 4799.34 3556.48 4766.09 3622.14C4748.74 3656.38 4733.49 3692.12 4717.79 3728.61L4671.43 3840.02C4610.32 3980.36 4557.1 4124 4512.01 4270.27C4475.7 4389.94 4450.66 4512.76 4437.24 4637.1C4428.54 4721.02 4427.14 4805.53 4433.05 4889.69C4435.44 4919.59 4437.69 4942.48 4439.78 4958.03C4440.68 4965.51 4441.28 4971.49 4441.88 4975.82V4981.96C4441.23 4980.01 4440.78 4978.01 4440.53 4975.97C4439.78 4971.64 4438.88 4965.8 4437.69 4958.33C4435 4943.37 4432.16 4919.74 4429.46 4889.84C4422.25 4805.52 4422.75 4720.73 4430.96 4636.5C4443.55 4511.63 4468.04 4388.24 4504.09 4268.02C4548.79 4121.34 4601.87 3977.34 4663.05 3836.73L4710.61 3725.77C4726.31 3689.43 4741.71 3653.39 4759.21 3619C4792.69 3553.14 4829.78 3489.18 4870.32 3427.43C4908.61 3367.61 4947.19 3313.47 4983.53 3262.93C5019.87 3212.38 5055.01 3165.12 5088.21 3123.85C5140.96 3058.35 5198.81 2997.15 5261.24 2940.81C5283.37 2920.92 5301.02 2905.96 5312.98 2895.94L5326.89 2884.73C5328.59 2883.24 5330.45 2881.94 5332.42 2880.84Z" fill="#263238"/>
<path d="M4761.15 3618.7C4759.05 3612.54 4757.59 3606.17 4756.82 3599.7C4754.43 3587.29 4751.73 3569.79 4748.59 3547.06C4742.16 3502.2 4735.58 3440.74 4728.55 3372.69C4721.53 3304.65 4713.6 3243.04 4707.02 3198.62C4703.58 3176.49 4700.59 3158.69 4698.5 3146.28C4696.86 3139.93 4696.01 3133.4 4695.95 3126.84C4698.53 3132.83 4700.39 3139.11 4701.49 3145.53C4704.78 3157.8 4708.51 3175.44 4712.7 3197.73C4721.23 3242.59 4729.6 3303.6 4736.63 3371.8C4743.66 3439.99 4749.64 3499.81 4754.28 3546.32C4756.52 3567.25 4758.46 3585.05 4759.96 3599.26C4761.12 3605.67 4761.52 3612.19 4761.15 3618.7Z" fill="#263238"/>
<path d="M5336.61 3511.32C5329.33 3512.91 5321.92 3513.81 5314.48 3514.01C5299.52 3515.36 5278.29 3517.16 5251.97 3520.15C5199.33 3525.83 5126.95 3536.3 5047.54 3551.25C4968.13 3566.21 4896.79 3583.1 4845.5 3596.12C4819.93 3602.7 4799.29 3608.68 4785.68 3612.71C4778.42 3615.3 4770.9 3617.1 4763.25 3618.1C4770.16 3614.62 4777.37 3611.77 4784.78 3609.57C4798.84 3604.64 4819.18 3597.76 4844.6 3590.43C4895.6 3575.48 4966.93 3557.68 5046.64 3542.43C5114.16 3529.52 5182.29 3520.03 5250.77 3514.01C5277.24 3511.77 5298.62 3510.87 5313.58 3510.57C5321.26 3510.05 5328.98 3510.3 5336.61 3511.32Z" fill="#263238"/>
<path d="M4511.41 4257.56C4509.82 4255.39 4508.51 4253.03 4507.53 4250.53L4497.66 4229.74C4489.13 4211.65 4477.62 4184.88 4463.86 4152.13C4436.04 4086.33 4400.6 3994.21 4362.91 3891.92C4325.23 3789.63 4290.53 3697.51 4264.21 3630.96C4251.35 3598.66 4240.74 3572.19 4232.81 3552.45L4224.44 3531.06C4223.27 3528.6 4222.47 3525.98 4222.04 3523.29C4223.64 3525.45 4224.94 3527.81 4225.93 3530.31L4235.8 3551.1C4244.18 3569.2 4255.84 3595.97 4269.6 3628.72C4297.41 3694.52 4332.86 3786.64 4370.54 3888.93C4408.23 3991.22 4442.92 4083.34 4469.24 4149.88C4482.1 4182.18 4492.72 4208.65 4500.5 4228.39C4503.94 4236.92 4506.78 4243.35 4509.02 4249.78C4510.18 4252.25 4510.99 4254.86 4511.41 4257.56Z" fill="#263238"/>
<path d="M5275.29 4011.25C5272.9 4012.63 5270.33 4013.68 5267.67 4014.39L5245.53 4021.87L5163.73 4048.34C5094.64 4070.77 4999.23 4102.78 4894.55 4138.07C4789.87 4173.36 4694.01 4204.77 4624.47 4225.7C4589.77 4236.32 4561.51 4244.4 4541.92 4249.78L4519.34 4255.61C4516.71 4256.45 4514.01 4257 4511.26 4257.26C4513.66 4255.88 4516.22 4254.83 4518.89 4254.12L4541.02 4246.64L4622.82 4220.17C4691.91 4197.74 4787.33 4165.73 4892.01 4130.44C4996.69 4095.15 5092.4 4063.74 5161.94 4042.81C5196.78 4032.19 5224.9 4024.12 5244.64 4018.73L5267.22 4012.9C5269.84 4012.06 5272.55 4011.51 5275.29 4011.25Z" fill="#263238"/>
<path d="M4963.64 383.722L4886.62 411.239L4853.57 310.595C4792.86 125.008 4599.35 26.4576 4421.54 89.1173C4243.73 151.777 4149.06 355.309 4209.78 540.895L4242.83 641.539L4165.51 669.205C4136.03 680.64 4112.09 702.997 4098.67 731.628C4085.24 760.258 4083.37 792.961 4093.43 822.938L4307.73 1477.8C4312.18 1492.64 4319.57 1506.43 4329.45 1518.36C4339.34 1530.29 4351.52 1540.11 4365.27 1547.24C4379.03 1554.37 4394.07 1558.66 4409.52 1559.86C4424.97 1561.06 4440.5 1559.14 4455.19 1554.22L5253.31 1268.73C5283.18 1257.32 5307.46 1234.76 5321.04 1205.81C5334.63 1176.86 5336.45 1143.77 5326.14 1113.51L5111.69 458.645C5107.13 443.847 5099.63 430.119 5089.64 418.282C5079.66 406.445 5067.39 396.741 5053.57 389.748C5039.76 382.756 5024.67 378.619 5009.22 377.583C4993.77 376.548 4978.27 378.636 4963.64 383.722ZM4355.29 488.404C4338.92 440.149 4341.86 387.431 4363.49 341.294C4385.12 295.157 4423.77 259.182 4471.34 240.906C4494.82 232.87 4519.69 229.648 4544.45 231.431C4569.21 233.214 4593.36 239.967 4615.45 251.286C4637.54 262.605 4657.13 278.258 4673.04 297.312C4688.96 316.366 4700.87 338.43 4708.07 362.188L4740.97 462.832L4388.19 589.049L4355.29 488.404ZM4803.93 1069.54L4858.66 1236.73C4859.66 1240.08 4859.34 1243.69 4857.75 1246.81C4856.17 1249.93 4853.44 1252.32 4850.14 1253.48L4773.42 1280.85C4770.37 1281.69 4767.1 1281.33 4764.32 1279.82C4761.53 1278.32 4759.43 1275.79 4758.46 1272.77L4703.28 1106.33C4672.85 1104.67 4643.66 1093.76 4619.61 1075.05C4595.55 1056.34 4577.79 1030.73 4568.69 1001.65C4555.68 963.196 4558.06 921.206 4575.31 884.467C4592.57 847.727 4623.36 819.088 4661.26 804.544C4679.97 798.152 4699.77 795.591 4719.5 797.016C4739.22 798.44 4758.45 803.82 4776.05 812.835C4793.64 821.85 4809.25 834.315 4821.92 849.488C4834.6 864.661 4844.09 882.231 4849.84 901.151C4859.46 930.694 4860.25 962.403 4852.13 992.391C4844 1022.38 4827.3 1049.35 4804.08 1069.99L4803.93 1069.54Z" fill="#FF4343"/>
<path d="M4883.18 409.444C4883.18 411.538 4740.37 465.225 4562.71 529.081C4385.05 592.937 4240.14 644.231 4239.39 642.736C4238.64 641.24 4382.21 587.105 4560.02 523.099C4737.83 459.093 4882.44 407.5 4883.18 409.444Z" fill="#263238"/>
<path d="M5052.77 436.961C5053.43 438.259 5053.98 439.609 5054.41 440.999C5055.61 443.99 5056.96 447.878 5058.75 452.663C5062.64 463.58 5068.02 478.684 5074.75 497.527L5132.18 664.719C5156.11 735.604 5184.67 819.649 5216.37 912.965C5231.33 959.773 5248.97 1008.52 5265.42 1059.82C5274.23 1086.25 5278.03 1114.09 5276.64 1141.92C5275.37 1156.39 5271.25 1170.47 5264.53 1183.34C5257.34 1196.18 5247.74 1207.5 5236.26 1216.69C5213.16 1233.56 5187.51 1246.63 5160.29 1255.42L5083.28 1283.09L4937.47 1335.28L4690.57 1423.22L4523.83 1481.84L4478.96 1496.79L4467 1500.68C4465.72 1501.25 4464.36 1501.6 4462.96 1501.73C4462.96 1501.73 4464.16 1501.73 4466.7 1499.93L4478.36 1495.3L4523.23 1478.4L4689.07 1417.38L4935.53 1327.66L5081.03 1275.02L5158.05 1247.2C5184.5 1238.77 5209.4 1226.09 5231.78 1209.66C5242.46 1201.13 5251.39 1190.62 5258.1 1178.71C5264.43 1166.8 5268.25 1153.72 5269.31 1140.27C5270.69 1113.46 5267.04 1086.63 5258.54 1061.17C5242.39 1010.32 5225.35 961.119 5209.94 914.311C5178.84 820.845 5150.12 736.501 5127.39 665.616C5104.66 594.732 5085.52 537.755 5072.36 497.677C5066.08 478.086 5061.29 462.832 5057.41 451.766L5053.82 439.802C5053.37 438.896 5053.01 437.943 5052.77 436.961Z" fill="#263238"/>
<path d="M4631.65 230.737C4631.65 230.737 4623.72 226.849 4609.07 220.867C4588.18 212.84 4566.08 208.391 4543.72 207.707C4510.56 206.57 4477.57 212.801 4447.11 225.951C4410.07 242.326 4378.4 268.812 4355.74 302.369C4332.92 335.831 4320.68 375.374 4320.59 415.875C4320.91 449.07 4325.94 482.051 4335.55 513.827C4343.32 541.044 4351.4 562.729 4356.78 577.833C4359.96 585.505 4362.56 593.402 4364.56 601.461C4360.31 594.288 4356.76 586.727 4353.94 578.88C4347.81 563.925 4338.99 542.689 4330.31 515.323C4319.67 483.213 4313.87 449.695 4313.12 415.875C4312.72 373.844 4325.25 332.706 4349.01 298.033C4372.46 263.25 4405.43 235.945 4443.97 219.371C4475.38 206.149 4509.4 200.316 4543.42 202.323C4566.27 203.488 4588.72 208.809 4609.67 218.026C4615.27 220.609 4620.66 223.608 4625.82 226.998C4627.94 227.933 4629.91 229.194 4631.65 230.737Z" fill="#263238"/>
<path d="M4638.53 815.91C4640.92 814.463 4643.42 813.213 4646.01 812.171C4653.49 808.793 4661.24 806.042 4669.19 803.946C4681.79 800.226 4694.79 798.017 4707.92 797.366C4725.77 796.406 4743.63 799.104 4760.41 805.292C4798.69 818.751 4833.84 857.783 4851.18 909.974C4859.5 937.982 4859.5 967.805 4851.18 995.813C4841.96 1026.21 4825.42 1053.89 4803.03 1076.42L4803.93 1072.38C4823.82 1126.96 4845.5 1186.19 4867.93 1247.95L4869.28 1251.69L4865.54 1253.03L4831.29 1264.4L4756.52 1289.37L4752.78 1290.57L4751.59 1286.83C4731.1 1224.92 4708.67 1167.19 4691.77 1110.51L4695.06 1113.06C4665.82 1110.63 4637.95 1099.66 4614.9 1081.5C4594.05 1065.44 4576.95 1045.03 4564.8 1021.68C4553.84 1000.98 4548.38 977.809 4548.95 954.389C4549.64 930.453 4555.62 906.967 4566.45 885.612C4577.28 864.257 4592.71 845.561 4611.61 830.864C4619.39 824.547 4628.12 819.5 4637.48 815.91C4629.03 820.922 4620.85 826.362 4612.96 832.21C4592.19 849.78 4576.28 872.384 4566.75 897.861C4558.57 917.072 4554.74 937.857 4555.54 958.722C4556.34 979.588 4561.75 1000.02 4571.38 1018.54C4583.33 1041 4600.02 1060.6 4620.28 1075.97C4642.27 1093.22 4668.85 1103.63 4696.7 1105.88H4699.24L4699.99 1108.12C4716.44 1163.75 4739.02 1221.93 4759.81 1284.14L4754.88 1281.74L4829.65 1256.77L4863.74 1245.26L4861.35 1250.34C4839.07 1188.58 4817.54 1129.21 4797.8 1074.62V1072.38L4799.59 1070.59C4821.33 1048.99 4837.54 1022.47 4846.85 993.271C4854.78 966.479 4854.78 937.962 4846.85 911.17C4830.55 860.923 4796.9 822.789 4760.41 809.33C4744.26 803.101 4727.01 800.202 4709.71 800.806C4696.79 801.101 4683.95 802.857 4671.43 806.04C4649.15 811.573 4638.68 816.657 4638.53 815.91Z" fill="#263238"/>
<path d="M4176.28 5133.89L2682.47 5127.02C2596.2 5126.54 2513.65 5091.85 2452.95 5030.55C2392.24 4969.26 2358.34 4886.38 2358.7 4800.11L2374.55 1055.33C2374.73 1012.59 2383.33 970.307 2399.86 930.893C2416.38 891.478 2440.52 855.707 2470.88 825.625C2501.24 795.542 2537.23 771.738 2576.79 755.573C2616.36 739.409 2658.72 731.2 2701.46 731.416L4195.12 738.295C4281.39 738.731 4363.96 773.387 4424.69 834.653C4485.42 895.919 4519.36 978.786 4519.04 1065.05L4503.19 4809.68C4503.01 4852.43 4494.42 4894.73 4477.89 4934.16C4461.37 4973.6 4437.24 5009.39 4406.88 5039.49C4376.53 5069.6 4340.54 5093.43 4300.97 5109.63C4261.4 5125.83 4219.04 5134.07 4176.28 5133.89Z" fill="#455A64"/>
<path d="M4192.88 867.054H3903.36C3893.91 867.229 3884.59 869.264 3875.93 873.042C3867.27 876.819 3859.44 882.266 3852.89 889.071C3846.33 895.875 3841.18 903.905 3837.73 912.7C3834.28 921.496 3832.6 930.885 3832.77 940.332V992.822C3832.95 1002.26 3831.27 1011.64 3827.81 1020.43C3824.36 1029.22 3819.21 1037.24 3812.65 1044.03C3806.1 1050.82 3798.26 1056.26 3789.6 1060.02C3780.94 1063.78 3771.63 1065.79 3762.19 1065.95L3197.8 1063.41C3178.71 1062.9 3160.6 1054.83 3147.45 1040.98C3134.3 1027.13 3127.18 1008.63 3127.67 989.532V937.042C3128.15 917.973 3121.05 899.491 3107.93 885.644C3094.82 871.797 3076.74 863.714 3057.68 863.166H2955.84L2702.36 861.97C2642.07 861.611 2584.09 885.157 2541.12 927.452C2498.15 969.747 2473.7 1027.35 2473.1 1087.63L2458.15 4742.83C2458.01 4772.74 2463.77 4802.39 2475.08 4830.07C2486.4 4857.76 2503.06 4882.94 2524.12 4904.19C2545.17 4925.44 2570.2 4942.33 2597.78 4953.9C2625.36 4965.47 2654.95 4971.5 2684.86 4971.64L4175.53 4978.52C4205.46 4978.65 4235.13 4972.9 4262.83 4961.57C4290.53 4950.24 4315.73 4933.57 4337 4912.5C4358.26 4891.44 4375.16 4866.39 4386.74 4838.79C4398.32 4811.19 4404.35 4781.58 4404.49 4751.66L4419.44 1096.46C4419.8 1036 4396.14 977.871 4353.65 934.854C4311.17 891.837 4253.34 867.45 4192.88 867.054Z" fill="white"/>
<path d="M3992.34 4490.85L2883.91 4486.06C2872.39 4486.06 2863.12 4473.5 2863.27 4458.25L2864.47 4168.28C2864.47 4153.32 2873.89 4140.46 2885.4 4140.46L3993.84 4145.55C4000.22 4146.65 4005.92 4150.17 4009.77 4155.38C4013.62 4160.6 4015.3 4167.09 4014.47 4173.51L4013.43 4463.18C4013.43 4478.58 4003.86 4491 3992.34 4490.85Z" fill="#FF4343"/>
<path d="M3188.74 4230.18C3188.71 4229.89 3188.57 4229.66 3188.32 4229.5C3188.08 4229.34 3187.77 4229.26 3187.41 4229.26C3187.15 4229.26 3186.92 4229.3 3186.73 4229.38C3186.53 4229.47 3186.38 4229.58 3186.27 4229.73C3186.16 4229.88 3186.11 4230.05 3186.11 4230.24C3186.11 4230.4 3186.15 4230.53 3186.22 4230.65C3186.3 4230.76 3186.4 4230.85 3186.52 4230.93C3186.64 4231 3186.76 4231.06 3186.89 4231.11C3187.02 4231.15 3187.14 4231.19 3187.25 4231.22L3187.85 4231.38C3188.01 4231.42 3188.18 4231.48 3188.37 4231.55C3188.56 4231.62 3188.74 4231.72 3188.91 4231.84C3189.09 4231.96 3189.23 4232.12 3189.35 4232.31C3189.46 4232.5 3189.52 4232.73 3189.52 4233.01C3189.52 4233.33 3189.43 4233.62 3189.27 4233.88C3189.1 4234.13 3188.86 4234.34 3188.54 4234.49C3188.22 4234.64 3187.83 4234.72 3187.38 4234.72C3186.96 4234.72 3186.59 4234.65 3186.28 4234.51C3185.97 4234.38 3185.73 4234.19 3185.55 4233.94C3185.38 4233.7 3185.28 4233.41 3185.25 4233.09H3185.99C3186.01 4233.31 3186.09 4233.5 3186.22 4233.65C3186.35 4233.79 3186.52 4233.9 3186.72 4233.97C3186.93 4234.04 3187.15 4234.07 3187.38 4234.07C3187.65 4234.07 3187.9 4234.03 3188.12 4233.94C3188.33 4233.85 3188.51 4233.72 3188.63 4233.56C3188.76 4233.4 3188.82 4233.21 3188.82 4233C3188.82 4232.8 3188.77 4232.64 3188.66 4232.52C3188.55 4232.4 3188.41 4232.3 3188.23 4232.22C3188.05 4232.14 3187.85 4232.07 3187.65 4232.02L3186.92 4231.81C3186.46 4231.68 3186.09 4231.49 3185.82 4231.24C3185.55 4230.99 3185.42 4230.67 3185.42 4230.27C3185.42 4229.94 3185.51 4229.65 3185.69 4229.41C3185.87 4229.16 3186.11 4228.97 3186.41 4228.83C3186.72 4228.69 3187.06 4228.62 3187.44 4228.62C3187.82 4228.62 3188.16 4228.69 3188.45 4228.83C3188.75 4228.96 3188.99 4229.15 3189.16 4229.38C3189.33 4229.62 3189.43 4229.88 3189.44 4230.18H3188.74ZM3191.41 4228.7V4234.62H3190.69V4228.7H3191.41ZM3197.54 4228.7V4234.62H3196.84L3193.62 4229.97H3193.56V4234.62H3192.85V4228.7H3193.54L3196.77 4233.36H3196.83V4228.7H3197.54ZM3203.01 4230.55C3202.95 4230.36 3202.86 4230.18 3202.76 4230.03C3202.66 4229.87 3202.54 4229.74 3202.39 4229.63C3202.25 4229.52 3202.09 4229.44 3201.91 4229.38C3201.73 4229.32 3201.54 4229.29 3201.32 4229.29C3200.97 4229.29 3200.66 4229.38 3200.37 4229.56C3200.08 4229.74 3199.85 4230.01 3199.68 4230.36C3199.52 4230.71 3199.43 4231.15 3199.43 4231.66C3199.43 4232.17 3199.52 4232.6 3199.69 4232.96C3199.86 4233.31 3200.09 4233.57 3200.38 4233.76C3200.68 4233.94 3201.01 4234.03 3201.37 4234.03C3201.71 4234.03 3202.01 4233.95 3202.27 4233.81C3202.53 4233.66 3202.73 4233.46 3202.87 4233.19C3203.02 4232.92 3203.09 4232.61 3203.09 4232.25L3203.31 4232.29H3201.53V4231.66H3203.78V4232.29C3203.78 4232.78 3203.68 4233.2 3203.47 4233.56C3203.27 4233.92 3202.98 4234.2 3202.62 4234.4C3202.26 4234.6 3201.84 4234.7 3201.37 4234.7C3200.85 4234.7 3200.39 4234.57 3199.99 4234.33C3199.6 4234.08 3199.29 4233.73 3199.07 4233.28C3198.85 4232.82 3198.74 4232.28 3198.74 4231.66C3198.74 4231.19 3198.8 4230.77 3198.93 4230.4C3199.05 4230.02 3199.23 4229.7 3199.46 4229.44C3199.69 4229.17 3199.97 4228.97 3200.28 4228.83C3200.6 4228.69 3200.95 4228.62 3201.32 4228.62C3201.64 4228.62 3201.93 4228.67 3202.2 4228.76C3202.47 4228.86 3202.71 4228.99 3202.92 4229.16C3203.14 4229.33 3203.31 4229.53 3203.46 4229.77C3203.6 4230 3203.7 4230.26 3203.75 4230.55H3203.01ZM3211.18 4228.7H3211.9V4232.62C3211.9 4233.02 3211.8 4233.38 3211.61 4233.7C3211.42 4234.02 3211.15 4234.27 3210.81 4234.45C3210.47 4234.63 3210.06 4234.72 3209.6 4234.72C3209.13 4234.72 3208.73 4234.63 3208.38 4234.45C3208.04 4234.27 3207.77 4234.02 3207.58 4233.7C3207.39 4233.38 3207.3 4233.02 3207.3 4232.62V4228.7H3208.01V4232.56C3208.01 4232.85 3208.08 4233.11 3208.21 4233.33C3208.33 4233.55 3208.51 4233.73 3208.75 4233.86C3208.98 4233.99 3209.27 4234.05 3209.6 4234.05C3209.93 4234.05 3210.21 4233.99 3210.45 4233.86C3210.68 4233.73 3210.86 4233.55 3210.99 4233.33C3211.12 4233.11 3211.18 4232.85 3211.18 4232.56V4228.7ZM3213.33 4234.62V4228.7H3215.32C3215.79 4228.7 3216.17 4228.79 3216.46 4228.95C3216.76 4229.12 3216.98 4229.34 3217.12 4229.63C3217.26 4229.91 3217.33 4230.22 3217.33 4230.57C3217.33 4230.92 3217.26 4231.24 3217.12 4231.52C3216.98 4231.81 3216.76 4232.04 3216.47 4232.2C3216.17 4232.37 3215.8 4232.46 3215.34 4232.46H3213.9V4231.82H3215.31C3215.63 4231.82 3215.88 4231.77 3216.08 4231.66C3216.27 4231.55 3216.41 4231.4 3216.5 4231.21C3216.58 4231.02 3216.63 4230.81 3216.63 4230.57C3216.63 4230.34 3216.58 4230.12 3216.5 4229.94C3216.41 4229.75 3216.27 4229.6 3216.07 4229.5C3215.88 4229.39 3215.62 4229.34 3215.3 4229.34H3214.04V4234.62H3213.33Z" fill="#E8E8E3"/>
<path d="M3105 1941.54L2720.37 1939.8L2720.05 2010.38L3104.68 2012.13L3105 1941.54Z" fill="#FF4343"/>
<path opacity="0.1" d="M3105 1941.54L2720.37 1939.8L2720.05 2010.38L3104.68 2012.13L3105 1941.54Z" fill="black"/>
<path d="M4232.51 2374.92C4235.53 2374.62 4238.5 2373.92 4241.33 2372.83C4245.47 2371.21 4249.07 2368.46 4251.72 2364.89C4254.36 2361.32 4255.95 2357.07 4256.29 2352.64C4256.29 2328.86 4256.29 2294.17 4256.29 2249.61C4256.29 2227.32 4256.29 2202.35 4256.29 2174.83C4256.29 2168.1 4256.29 2161.07 4256.29 2154.05C4257.26 2147.23 4255.78 2140.28 4252.1 2134.45C4250.04 2131.66 4247.36 2129.38 4244.28 2127.8C4241.19 2126.22 4237.77 2125.37 4234.3 2125.33H4210.98H3994.88L2744.08 2120.7C2740.88 2120.64 2737.71 2121.36 2734.85 2122.79C2731.98 2124.23 2729.51 2126.33 2727.63 2128.92C2724.02 2134.77 2722.64 2141.73 2723.74 2148.51C2723.74 2163.47 2723.74 2178.42 2723.74 2193.38C2723.74 2223.29 2723.74 2253.19 2723.74 2283.1C2723.74 2298.06 2723.74 2313.01 2723.74 2327.97C2723.12 2334.93 2723.12 2341.94 2723.74 2348.9C2724.53 2351.89 2725.99 2354.66 2728.01 2356.99C2730.03 2359.32 2732.56 2361.16 2735.41 2362.36C2738.35 2363.54 2741.51 2364.1 2744.68 2364.01H2820.8L3152.94 2365.8L3715.23 2369.24L4094.33 2372.23L4197.37 2373.43H4224.14C4230.27 2373.43 4233.26 2373.43 4233.26 2373.43H4224.14H4197.37H4094.33H3715.23L3152.94 2371.63L2820.8 2370.29H2744.68C2740.49 2370.46 2736.31 2369.74 2732.42 2368.2C2728.48 2366.51 2724.98 2363.96 2722.18 2360.72C2719.38 2357.48 2717.36 2353.64 2716.27 2349.5C2715.4 2345.58 2715.1 2341.55 2715.37 2337.54V2326.47C2715.37 2311.52 2715.37 2296.56 2715.37 2281.61C2715.37 2251.7 2715.37 2221.79 2715.37 2191.88C2715.37 2176.93 2715.37 2161.97 2715.37 2147.02C2715.08 2143.03 2715.08 2139.04 2715.37 2135.05C2715.93 2130.65 2717.63 2126.48 2720.3 2122.94C2722.88 2119.33 2726.3 2116.4 2730.26 2114.39C2734.21 2112.39 2738.6 2111.37 2743.03 2111.43L3993.84 2118.3L4209.93 2119.8H4233.26C4237.37 2119.8 4241.42 2120.8 4245.06 2122.7C4248.71 2124.6 4251.84 2127.35 4254.19 2130.72C4258.41 2137.22 4260.11 2145.03 4258.98 2152.7C4258.98 2159.73 4258.98 2166.76 4258.98 2173.49C4258.98 2200.7 4258.98 2225.68 4258.98 2248.26C4258.98 2293.12 4257.93 2327.52 4257.63 2351.45C4257.27 2356.05 4255.6 2360.45 4252.81 2364.13C4250.03 2367.81 4246.26 2370.62 4241.93 2372.23C4239.1 2373.99 4235.84 2374.92 4232.51 2374.92Z" fill="#E0E0E0"/>
<path d="M3539.37 2195.77H2835.9V2261.72H3539.37V2195.77Z" fill="#FF4343"/>
<path opacity="0.2" d="M3539.37 2195.77H2835.9V2261.72H3539.37V2195.77Z" fill="white"/>
<path d="M3102.37 2585.47L2717.75 2583.72L2717.43 2654.31L3102.05 2656.05L3102.37 2585.47Z" fill="#FF4343"/>
<path opacity="0.1" d="M3102.37 2585.47L2717.75 2583.72L2717.43 2654.31L3102.05 2656.05L3102.37 2585.47Z" fill="black"/>
<path d="M4222.79 3018.87C4225.81 3018.5 4228.81 3017.95 4231.76 3017.22C4235.94 3015.89 4239.78 3013.68 4243.03 3010.74C4246.28 3007.8 4248.87 3004.2 4250.61 3000.18C4252.96 2994.14 4253.88 2987.64 4253.3 2981.18C4253.3 2974 4253.3 2966.23 4253.3 2957.55C4253.3 2940.21 4253.3 2920.47 4253.3 2897.74V2802.78C4254.01 2795.9 4252.49 2788.98 4248.96 2783.03C4245.27 2776.94 4239.47 2772.42 4232.66 2770.32C4225.21 2768.99 4217.63 2768.59 4210.08 2769.13H3994.88L2748.42 2764.49C2741.71 2764.51 2735.24 2766.96 2730.21 2771.39C2725.18 2775.81 2721.92 2781.92 2721.05 2788.57C2721.05 2802.78 2721.05 2818.48 2721.05 2833.43C2721.05 2863.34 2721.05 2893.25 2721.05 2923.16C2721.05 2938.11 2721.05 2953.07 2721.05 2968.02C2720.49 2975.01 2720.8 2982.04 2721.95 2988.96C2723.82 2995.02 2727.66 3000.29 2732.87 3003.91C2738.39 3007.42 2744.88 3009.09 2751.41 3008.7H2772.2H2815.41L3146.36 3010.34L3706.71 3013.78L4084.46 3016.78L4187.2 3017.97H4084.46H3706.71L3146.06 3017.37L2815.12 3016.18H2750.06C2741.97 3016.66 2733.95 3014.51 2727.18 3010.05C2720.38 3005.33 2715.41 2998.41 2713.13 2990.46C2711.79 2982.86 2711.38 2975.12 2711.93 2967.42C2711.93 2952.47 2711.93 2937.52 2711.93 2922.56C2711.93 2892.65 2711.93 2862.74 2711.93 2832.83C2711.93 2817.88 2711.93 2802.92 2711.93 2787.97C2713.02 2779.42 2717.19 2771.56 2723.66 2765.86C2730.13 2760.16 2738.45 2757.02 2747.07 2757.01L3993.54 2763.89L4208.73 2765.54C4216.75 2765.05 4224.79 2765.6 4232.66 2767.18C4240.43 2769.72 4246.98 2775.05 4251.05 2782.14C4254.92 2788.72 4256.6 2796.37 4255.84 2803.97C4255.84 2811 4255.84 2817.88 4255.84 2824.76C4255.84 2851.83 4255.84 2876.65 4255.84 2899.53C4255.84 2922.41 4255.84 2941.7 4255.84 2959.35C4255.84 2967.87 4255.84 2975.8 4255.84 2983.13C4256.38 2989.82 4255.31 2996.54 4252.7 3002.72C4250.76 3006.84 4247.95 3010.5 4244.47 3013.45C4240.98 3016.39 4236.9 3018.54 4232.51 3019.77C4229.24 3020.04 4225.95 3019.73 4222.79 3018.87Z" fill="#E0E0E0"/>
<path d="M3099.48 3257.36L2714.85 3255.61L2714.53 3326.2L3099.16 3327.94L3099.48 3257.36Z" fill="#FF4343"/>
<path opacity="0.1" d="M3099.48 3257.36L2714.85 3255.61L2714.53 3326.2L3099.16 3327.94L3099.48 3257.36Z" fill="black"/>
<path d="M4219.8 3690.48C4222.82 3690.12 4225.82 3689.57 4228.77 3688.83C4232.93 3687.51 4236.76 3685.32 4240.01 3682.41C4243.26 3679.5 4245.85 3675.93 4247.62 3671.93C4249.96 3665.89 4250.88 3659.4 4250.31 3652.94C4250.31 3645.61 4250.31 3637.99 4250.31 3629.16C4250.31 3611.97 4250.31 3592.08 4250.31 3569.35V3474.38C4251.02 3467.51 4249.5 3460.59 4245.97 3454.64C4242.19 3448.66 4236.42 3444.21 4229.67 3442.08C4222.23 3440.7 4214.64 3440.25 4207.09 3440.74H3991.89L2745.43 3436.1C2738.72 3436.12 2732.25 3438.57 2727.22 3443C2722.19 3447.42 2718.93 3453.53 2718.06 3460.18C2718.06 3475.13 2718.06 3490.09 2718.06 3505.04C2718.06 3534.95 2718.06 3564.86 2718.06 3594.77C2718.06 3609.72 2718.06 3624.68 2718.06 3639.63C2717.5 3646.57 2717.81 3653.55 2718.96 3660.42C2720.75 3666.52 2724.61 3671.81 2729.88 3675.37C2735.36 3678.96 2741.88 3680.64 2748.42 3680.16H2813.47L3144.42 3681.95L3704.76 3685.39L4082.52 3688.38L4185.25 3689.58H4082.52H3704.76L3144.42 3687.94L2813.47 3686.59H2748.42C2740.32 3687.14 2732.28 3684.98 2725.54 3680.46C2718.73 3675.75 2713.77 3668.82 2711.48 3660.87C2710.14 3653.27 2709.74 3645.53 2710.28 3637.84C2710.28 3622.88 2710.28 3607.93 2710.28 3592.97C2710.28 3563.07 2710.28 3533.16 2710.28 3503.25C2710.28 3488.29 2710.28 3473.34 2710.28 3457.64C2711.34 3449.1 2715.48 3441.24 2721.93 3435.54C2728.37 3429.84 2736.67 3426.69 2745.28 3426.68L3991.74 3433.56L4206.94 3435.2C4214.95 3434.71 4223 3435.27 4230.87 3436.85C4238.64 3439.39 4245.19 3444.72 4249.26 3451.8C4253.13 3458.39 4254.8 3466.04 4254.05 3473.64C4254.05 3480.67 4254.05 3487.69 4254.05 3494.42C4254.05 3521.49 4254.05 3546.32 4254.05 3569.2C4254.05 3592.08 4254.05 3611.37 4254.05 3629.02C4254.05 3637.54 4254.05 3645.47 4254.05 3652.79C4254.62 3659.48 4253.54 3666.21 4250.91 3672.38C4248.96 3676.51 4246.16 3680.17 4242.67 3683.11C4239.19 3686.05 4235.11 3688.21 4230.72 3689.43C4227.21 3690.63 4223.47 3690.99 4219.8 3690.48Z" fill="#E0E0E0"/>
<path d="M3524.35 2858.36L2820.89 2855.17L2820.59 2921.11L3524.05 2924.31L3524.35 2858.36Z" fill="#FF4343"/>
<path opacity="0.2" d="M3524.35 2858.36L2820.89 2855.17L2820.59 2921.11L3524.05 2924.31L3524.35 2858.36Z" fill="white"/>
<path d="M2884.5 3568.45C2884.06 3574.46 2881.87 3580.22 2878.19 3585C2874.5 3589.77 2869.5 3593.37 2863.8 3595.33C2858.09 3597.29 2851.94 3597.53 2846.1 3596.03C2840.26 3594.52 2834.99 3591.34 2830.94 3586.87C2826.89 3582.39 2824.25 3576.83 2823.33 3570.87C2822.42 3564.91 2823.27 3558.81 2825.79 3553.33C2828.31 3547.85 2832.38 3543.23 2837.5 3540.04C2842.62 3536.85 2848.57 3535.24 2854.6 3535.4C2862.93 3535.86 2870.74 3539.59 2876.34 3545.78C2881.94 3551.97 2884.87 3560.11 2884.5 3568.45Z" fill="#FF4343"/>
<path d="M2979.76 3568.9C2980.06 3573.11 2979.48 3577.35 2978.07 3581.33C2976.66 3585.31 2974.44 3588.96 2971.56 3592.05C2968.68 3595.14 2965.19 3597.61 2961.32 3599.29C2957.44 3600.98 2953.26 3601.85 2949.03 3601.85C2944.81 3601.85 2940.63 3600.98 2936.75 3599.29C2932.87 3597.61 2929.39 3595.14 2926.5 3592.05C2923.62 3588.96 2921.41 3585.31 2919.99 3581.33C2918.58 3577.35 2918.01 3573.11 2918.3 3568.9C2918.01 3564.68 2918.58 3560.45 2919.99 3556.47C2921.41 3552.48 2923.62 3548.83 2926.5 3545.74C2929.39 3542.65 2932.87 3540.19 2936.75 3538.5C2940.63 3536.82 2944.81 3535.95 2949.03 3535.95C2953.26 3535.95 2957.44 3536.82 2961.32 3538.5C2965.19 3540.19 2968.68 3542.65 2971.56 3545.74C2974.44 3548.83 2976.66 3552.48 2978.07 3556.47C2979.48 3560.45 2980.06 3564.68 2979.76 3568.9Z" fill="#FF4343"/>
<path d="M3075.17 3569.35C3074.73 3575.36 3072.54 3581.12 3068.86 3585.89C3065.17 3590.67 3060.17 3594.26 3054.47 3596.23C3048.76 3598.19 3042.61 3598.43 3036.77 3596.93C3030.93 3595.42 3025.66 3592.24 3021.61 3587.76C3017.56 3583.29 3014.92 3577.73 3014 3571.77C3013.09 3565.81 3013.94 3559.71 3016.46 3554.23C3018.98 3548.75 3023.05 3544.13 3028.17 3540.94C3033.29 3537.75 3039.24 3536.14 3045.27 3536.3C3053.58 3536.8 3061.37 3540.54 3066.96 3546.72C3072.56 3552.9 3075.5 3561.02 3075.17 3569.35Z" fill="#FF4343"/>
<path d="M3170.44 3569.8C3170 3575.81 3167.8 3581.56 3164.12 3586.34C3160.44 3591.12 3155.43 3594.71 3149.73 3596.67C3144.03 3598.63 3137.87 3598.88 3132.03 3597.37C3126.19 3595.87 3120.92 3592.68 3116.87 3588.21C3112.82 3583.74 3110.18 3578.18 3109.26 3572.22C3108.35 3566.25 3109.2 3560.16 3111.72 3554.67C3114.24 3549.19 3118.31 3544.57 3123.43 3541.39C3128.55 3538.2 3134.5 3536.59 3140.53 3536.75C3148.85 3537.25 3156.63 3540.99 3162.23 3547.17C3167.82 3553.35 3170.76 3561.47 3170.44 3569.8Z" fill="#FF4343"/>
<path d="M3265.7 3570.09C3265.28 3576.12 3263.11 3581.89 3259.45 3586.69C3255.78 3591.49 3250.79 3595.1 3245.08 3597.09C3239.38 3599.07 3233.22 3599.33 3227.37 3597.84C3221.52 3596.36 3216.23 3593.18 3212.17 3588.71C3208.11 3584.24 3205.45 3578.68 3204.52 3572.71C3203.59 3566.75 3204.44 3560.64 3206.96 3555.15C3209.48 3549.66 3213.55 3545.03 3218.68 3541.84C3223.8 3538.65 3229.75 3537.03 3235.79 3537.19C3244.08 3537.7 3251.85 3541.42 3257.43 3547.56C3263.02 3553.71 3265.99 3561.79 3265.7 3570.09Z" fill="#FF4343"/>
<path d="M3361.11 3570.54C3360.7 3576.54 3358.55 3582.28 3354.92 3587.07C3351.29 3591.85 3346.34 3595.47 3340.68 3597.48C3335.02 3599.49 3328.89 3599.8 3323.06 3598.37C3317.22 3596.95 3311.93 3593.85 3307.83 3589.45C3303.74 3585.06 3301.02 3579.56 3300.01 3573.64C3298.99 3567.72 3299.74 3561.63 3302.14 3556.12C3304.54 3550.62 3308.5 3545.94 3313.53 3542.65C3318.56 3539.37 3324.44 3537.63 3330.45 3537.64C3338.87 3537.95 3346.83 3541.59 3352.58 3547.76C3358.32 3553.93 3361.39 3562.12 3361.11 3570.54Z" fill="#FF4343"/>
<path d="M3456.37 3570.99C3456.66 3575.21 3456.09 3579.44 3454.67 3583.42C3453.26 3587.41 3451.05 3591.06 3448.17 3594.15C3445.28 3597.24 3441.8 3599.7 3437.92 3601.39C3434.04 3603.07 3429.86 3603.94 3425.64 3603.94C3421.41 3603.94 3417.23 3603.07 3413.35 3601.39C3409.48 3599.7 3405.99 3597.24 3403.11 3594.15C3400.22 3591.06 3398.01 3587.41 3396.6 3583.42C3395.19 3579.44 3394.61 3575.21 3394.9 3570.99C3394.61 3566.78 3395.19 3562.54 3396.6 3558.56C3398.01 3554.58 3400.22 3550.93 3403.11 3547.83C3405.99 3544.74 3409.48 3542.28 3413.35 3540.59C3417.23 3538.91 3421.41 3538.04 3425.64 3538.04C3429.86 3538.04 3434.04 3538.91 3437.92 3540.59C3441.8 3542.28 3445.28 3544.74 3448.17 3547.83C3451.05 3550.93 3453.26 3554.58 3454.67 3558.56C3456.09 3562.54 3456.66 3566.78 3456.37 3570.99Z" fill="#FF4343"/>
<path d="M3551.63 3571.44C3551.22 3577.43 3549.07 3583.18 3545.44 3587.96C3541.81 3592.75 3536.86 3596.37 3531.2 3598.38C3525.54 3600.39 3519.41 3600.7 3513.58 3599.27C3507.74 3597.84 3502.45 3594.74 3498.35 3590.35C3494.26 3585.95 3491.54 3580.46 3490.53 3574.54C3489.51 3568.61 3490.26 3562.53 3492.66 3557.02C3495.06 3551.52 3499.02 3546.83 3504.05 3543.55C3509.08 3540.27 3514.96 3538.53 3520.97 3538.54C3529.39 3538.85 3537.35 3542.49 3543.1 3548.66C3548.84 3554.82 3551.91 3563.02 3551.63 3571.44Z" fill="#FF4343"/>
<path d="M3646.89 3571.89C3646.48 3577.91 3644.3 3583.68 3640.64 3588.48C3636.97 3593.28 3631.98 3596.9 3626.27 3598.88C3620.57 3600.86 3614.41 3601.13 3608.56 3599.64C3602.71 3598.15 3597.42 3594.97 3593.36 3590.51C3589.3 3586.04 3586.64 3580.48 3585.71 3574.51C3584.79 3568.54 3585.63 3562.43 3588.15 3556.95C3590.67 3551.46 3594.74 3546.83 3599.87 3543.64C3604.99 3540.44 3610.94 3538.83 3616.98 3538.99C3625.27 3539.49 3633.04 3543.21 3638.62 3549.36C3644.21 3555.5 3647.18 3563.59 3646.89 3571.89Z" fill="#FF4343"/>
<g opacity="0.2">
<path d="M2884.5 3568.45C2884.06 3574.46 2881.87 3580.22 2878.19 3585C2874.5 3589.77 2869.5 3593.37 2863.8 3595.33C2858.09 3597.29 2851.94 3597.53 2846.1 3596.03C2840.26 3594.52 2834.99 3591.34 2830.94 3586.87C2826.89 3582.39 2824.25 3576.83 2823.33 3570.87C2822.42 3564.91 2823.27 3558.81 2825.79 3553.33C2828.31 3547.85 2832.38 3543.23 2837.5 3540.04C2842.62 3536.85 2848.57 3535.24 2854.6 3535.4C2862.93 3535.86 2870.74 3539.59 2876.34 3545.78C2881.94 3551.97 2884.87 3560.11 2884.5 3568.45Z" fill="white"/>
<path d="M2979.76 3568.9C2980.06 3573.11 2979.48 3577.35 2978.07 3581.33C2976.66 3585.31 2974.44 3588.96 2971.56 3592.05C2968.68 3595.14 2965.19 3597.61 2961.32 3599.29C2957.44 3600.98 2953.26 3601.85 2949.03 3601.85C2944.81 3601.85 2940.63 3600.98 2936.75 3599.29C2932.87 3597.61 2929.39 3595.14 2926.5 3592.05C2923.62 3588.96 2921.41 3585.31 2919.99 3581.33C2918.58 3577.35 2918.01 3573.11 2918.3 3568.9C2918.01 3564.68 2918.58 3560.45 2919.99 3556.47C2921.41 3552.48 2923.62 3548.83 2926.5 3545.74C2929.39 3542.65 2932.87 3540.19 2936.75 3538.5C2940.63 3536.82 2944.81 3535.95 2949.03 3535.95C2953.26 3535.95 2957.44 3536.82 2961.32 3538.5C2965.19 3540.19 2968.68 3542.65 2971.56 3545.74C2974.44 3548.83 2976.66 3552.48 2978.07 3556.47C2979.48 3560.45 2980.06 3564.68 2979.76 3568.9Z" fill="white"/>
<path d="M3075.17 3569.35C3074.73 3575.36 3072.54 3581.12 3068.86 3585.89C3065.17 3590.67 3060.17 3594.26 3054.47 3596.22C3048.76 3598.19 3042.61 3598.43 3036.77 3596.93C3030.93 3595.42 3025.66 3592.24 3021.61 3587.76C3017.56 3583.29 3014.92 3577.73 3014 3571.77C3013.09 3565.81 3013.94 3559.71 3016.46 3554.23C3018.98 3548.75 3023.05 3544.13 3028.17 3540.94C3033.29 3537.75 3039.24 3536.14 3045.27 3536.3C3053.58 3536.8 3061.37 3540.54 3066.96 3546.72C3072.56 3552.9 3075.5 3561.02 3075.17 3569.35Z" fill="white"/>
<path d="M3170.44 3569.8C3170 3575.81 3167.8 3581.56 3164.12 3586.34C3160.44 3591.12 3155.43 3594.71 3149.73 3596.67C3144.03 3598.63 3137.87 3598.88 3132.03 3597.37C3126.19 3595.87 3120.92 3592.68 3116.87 3588.21C3112.82 3583.74 3110.18 3578.18 3109.26 3572.22C3108.35 3566.25 3109.2 3560.16 3111.72 3554.67C3114.24 3549.19 3118.31 3544.57 3123.43 3541.39C3128.55 3538.2 3134.5 3536.59 3140.53 3536.75C3148.85 3537.25 3156.63 3540.99 3162.23 3547.17C3167.82 3553.35 3170.76 3561.47 3170.44 3569.8Z" fill="white"/>
<path d="M3265.7 3570.09C3265.28 3576.12 3263.11 3581.89 3259.45 3586.69C3255.78 3591.49 3250.79 3595.1 3245.08 3597.09C3239.38 3599.07 3233.22 3599.33 3227.37 3597.84C3221.52 3596.36 3216.23 3593.18 3212.17 3588.71C3208.11 3584.24 3205.45 3578.68 3204.52 3572.71C3203.59 3566.75 3204.44 3560.64 3206.96 3555.15C3209.48 3549.66 3213.55 3545.03 3218.68 3541.84C3223.8 3538.65 3229.75 3537.03 3235.79 3537.19C3244.08 3537.7 3251.85 3541.42 3257.43 3547.56C3263.02 3553.71 3265.99 3561.79 3265.7 3570.09Z" fill="white"/>
<path d="M3361.11 3570.54C3360.7 3576.54 3358.55 3582.28 3354.92 3587.07C3351.29 3591.85 3346.34 3595.47 3340.68 3597.48C3335.02 3599.49 3328.89 3599.8 3323.06 3598.37C3317.22 3596.95 3311.93 3593.85 3307.83 3589.45C3303.74 3585.06 3301.02 3579.56 3300.01 3573.64C3298.99 3567.72 3299.74 3561.63 3302.14 3556.12C3304.54 3550.62 3308.5 3545.94 3313.53 3542.65C3318.56 3539.37 3324.44 3537.63 3330.45 3537.64C3338.87 3537.95 3346.83 3541.59 3352.58 3547.76C3358.32 3553.93 3361.39 3562.12 3361.11 3570.54Z" fill="white"/>
<path d="M3456.37 3570.99C3456.66 3575.21 3456.09 3579.44 3454.67 3583.42C3453.26 3587.41 3451.05 3591.06 3448.17 3594.15C3445.28 3597.24 3441.8 3599.7 3437.92 3601.39C3434.04 3603.07 3429.86 3603.94 3425.64 3603.94C3421.41 3603.94 3417.23 3603.07 3413.35 3601.39C3409.48 3599.7 3405.99 3597.24 3403.11 3594.15C3400.22 3591.06 3398.01 3587.41 3396.6 3583.42C3395.19 3579.44 3394.61 3575.21 3394.9 3570.99C3394.61 3566.78 3395.19 3562.54 3396.6 3558.56C3398.01 3554.58 3400.22 3550.93 3403.11 3547.83C3405.99 3544.74 3409.48 3542.28 3413.35 3540.59C3417.23 3538.91 3421.41 3538.04 3425.64 3538.04C3429.86 3538.04 3434.04 3538.91 3437.92 3540.59C3441.8 3542.28 3445.28 3544.74 3448.17 3547.83C3451.05 3550.93 3453.26 3554.58 3454.67 3558.56C3456.09 3562.54 3456.66 3566.78 3456.37 3570.99Z" fill="white"/>
<path d="M3551.63 3571.44C3551.22 3577.43 3549.07 3583.18 3545.44 3587.96C3541.81 3592.75 3536.86 3596.37 3531.2 3598.38C3525.54 3600.39 3519.41 3600.7 3513.58 3599.27C3507.74 3597.84 3502.45 3594.74 3498.35 3590.35C3494.26 3585.95 3491.54 3580.46 3490.53 3574.54C3489.51 3568.61 3490.26 3562.53 3492.66 3557.02C3495.06 3551.52 3499.02 3546.83 3504.05 3543.55C3509.08 3540.27 3514.96 3538.53 3520.97 3538.54C3529.39 3538.85 3537.35 3542.49 3543.1 3548.66C3548.84 3554.82 3551.91 3563.02 3551.63 3571.44Z" fill="white"/>
<path d="M3646.89 3571.89C3646.48 3577.91 3644.3 3583.68 3640.64 3588.48C3636.97 3593.28 3631.98 3596.9 3626.27 3598.88C3620.57 3600.86 3614.41 3601.13 3608.56 3599.64C3602.71 3598.15 3597.42 3594.97 3593.36 3590.51C3589.3 3586.04 3586.64 3580.48 3585.71 3574.51C3584.79 3568.54 3585.63 3562.43 3588.15 3556.95C3590.67 3551.46 3594.74 3546.83 3599.87 3543.64C3604.99 3540.44 3610.94 3538.83 3616.98 3538.99C3625.27 3539.49 3633.04 3543.21 3638.62 3549.36C3644.21 3555.5 3647.18 3563.59 3646.89 3571.89Z" fill="white"/>
</g>
<path d="M3511.55 1413.05C3521.94 1408.47 3530.75 1400.94 3536.9 1391.4C3543.04 1381.85 3546.24 1370.71 3546.1 1359.36C3546.48 1351.98 3545.36 1344.6 3542.81 1337.67C3540.25 1330.74 3536.31 1324.4 3531.22 1319.04C3526.14 1313.68 3520.01 1309.41 3513.22 1306.49C3506.44 1303.58 3499.12 1302.07 3491.74 1302.07C3484.35 1302.07 3477.04 1303.58 3470.25 1306.49C3463.46 1309.41 3457.34 1313.68 3452.25 1319.04C3447.16 1324.4 3443.22 1330.74 3440.67 1337.67C3438.11 1344.6 3436.99 1351.98 3437.38 1359.36C3437.15 1370.82 3440.32 1382.1 3446.5 1391.76C3452.67 1401.42 3461.57 1409.04 3472.07 1413.64C3388.33 1426.21 3392.06 1517.13 3392.06 1517.13L3590.06 1518.03C3590.06 1518.03 3594.7 1425.46 3511.55 1413.05Z" fill="#FF4343"/>
<path opacity="0.1" d="M3511.55 1413.05C3521.94 1408.47 3530.75 1400.94 3536.9 1391.4C3543.04 1381.85 3546.24 1370.71 3546.1 1359.36C3546.48 1351.98 3545.36 1344.6 3542.81 1337.67C3540.25 1330.74 3536.31 1324.4 3531.22 1319.04C3526.14 1313.68 3520.01 1309.41 3513.22 1306.49C3506.44 1303.58 3499.12 1302.07 3491.74 1302.07C3484.35 1302.07 3477.04 1303.58 3470.25 1306.49C3463.46 1309.41 3457.34 1313.68 3452.25 1319.04C3447.16 1324.4 3443.22 1330.74 3440.67 1337.67C3438.11 1344.6 3436.99 1351.98 3437.38 1359.36C3437.15 1370.82 3440.32 1382.1 3446.5 1391.76C3452.67 1401.42 3461.57 1409.04 3472.07 1413.64C3388.33 1426.21 3392.06 1517.13 3392.06 1517.13L3590.06 1518.03C3590.06 1518.03 3594.7 1425.46 3511.55 1413.05Z" fill="black"/>
<path d="M3833.29 1576.67L3127.59 1573.47L3127.21 1657.81L3832.91 1661.01L3833.29 1576.67Z" fill="#FF4343"/>
<path opacity="0.2" d="M3833.29 1576.67L3127.59 1573.47L3127.21 1657.81L3832.91 1661.01L3833.29 1576.67Z" fill="white"/>
<path d="M1966.89 6195.97V6068.11L1737.64 6066.46L1735.7 6259.82L1749.9 6260.87C1813.16 6264.91 2071.72 6270.89 2114.2 6257.73C2161.45 6243.08 1966.89 6195.97 1966.89 6195.97Z" fill="#FF4343"/>
<path d="M2119.58 6245.77C2119.58 6247.86 2033.74 6249.65 1928.01 6249.65C1822.28 6249.65 1736.44 6247.86 1736.44 6245.77C1736.44 6243.67 1822.28 6241.88 1928.01 6241.88C2033.74 6241.88 2119.58 6243.67 2119.58 6245.77Z" fill="#263238"/>
<path d="M1970.93 6222.14C1968.99 6221.09 1970.93 6214.36 1975.57 6207.18C1980.2 6200.01 1986.48 6197.02 1987.98 6198.51C1989.47 6200.01 1986.33 6205.69 1981.85 6211.82C1977.36 6217.95 1972.87 6223.19 1970.93 6222.14Z" fill="#263238"/>
<path d="M1985.58 6230.51C1983.49 6230.51 1984.54 6222.14 1989.02 6214.21C1993.51 6206.29 1999.49 6201.5 2001.14 6202.7C2002.78 6203.89 2000.09 6210.62 1995.9 6217.65C1991.72 6224.68 1987.53 6231.26 1985.58 6230.51Z" fill="#263238"/>
<path d="M1805.53 6245.17C1804.63 6245.17 1801.19 6242.48 1796.26 6236.79C1790.24 6229.49 1783.52 6222.78 1776.22 6216.75C1769.04 6211.02 1760.48 6207.25 1751.4 6205.84C1744.37 6204.94 1739.88 6205.84 1739.43 6204.94C1738.98 6204.04 1743.32 6200.9 1751.55 6200.3C1762.4 6200.08 1772.99 6203.68 1781.45 6210.47C1789.39 6216.94 1796.08 6224.79 1801.19 6233.65C1804.63 6240.23 1806.43 6244.57 1805.53 6245.17Z" fill="#263238"/>
<path d="M1971.68 6198.06C1972.72 6199.86 1968.84 6204.34 1962.26 6206.74C1955.68 6209.13 1949.84 6208.23 1949.54 6206.74C1949.25 6205.24 1953.88 6202.1 1959.56 6200.01C1965.25 6197.91 1970.48 6196.27 1971.68 6198.06Z" fill="#263238"/>
<path d="M1968.09 6185.65C1968.09 6187.89 1962.11 6189.69 1954.33 6189.84C1946.55 6189.99 1940.42 6188.19 1940.57 6186.1C1940.72 6184 1946.85 6182.06 1954.33 6181.91C1961.81 6181.76 1967.79 6183.56 1968.09 6185.65Z" fill="#263238"/>
<path d="M2531.43 6195.97V6068.11L2302.17 6066.46L2300.23 6257.88L2314.44 6258.93C2377.7 6262.96 2636.41 6270.89 2678.73 6257.73C2725.99 6243.08 2531.43 6195.97 2531.43 6195.97Z" fill="#FF4343"/>
<path d="M2684.11 6246.07C2684.11 6248.16 2598.42 6249.95 2492.55 6249.95C2386.67 6249.95 2301.13 6248.16 2301.13 6246.07C2301.13 6243.97 2386.82 6242.18 2492.55 6242.18C2598.27 6242.18 2684.11 6243.97 2684.11 6246.07Z" fill="#263238"/>
<path d="M2535.46 6222.14C2533.67 6221.09 2535.46 6214.36 2540.1 6207.18C2544.74 6200.01 2551.02 6197.02 2552.51 6198.51C2554.01 6200.01 2550.87 6205.69 2546.38 6211.82C2541.89 6217.95 2537.41 6223.19 2535.46 6222.14Z" fill="#263238"/>
<path d="M2550.12 6230.51C2548.18 6230.51 2549.07 6222.14 2553.71 6214.21C2558.35 6206.29 2564.18 6201.5 2565.82 6202.7C2567.47 6203.89 2564.63 6210.62 2560.44 6217.65C2556.25 6224.68 2552.21 6231.26 2550.12 6230.51Z" fill="#263238"/>
<path d="M2370.07 6245.17C2369.17 6245.17 2365.88 6242.48 2360.8 6236.79C2354.77 6229.49 2348.06 6222.78 2340.76 6216.75C2333.57 6211.02 2325.02 6207.25 2315.93 6205.84C2309.05 6204.94 2304.42 6205.84 2303.97 6204.94C2303.52 6204.04 2307.86 6200.9 2316.08 6200.3C2326.94 6200.08 2337.53 6203.68 2345.99 6210.47C2353.96 6216.9 2360.66 6224.76 2365.73 6233.65C2369.17 6240.23 2370.97 6244.57 2370.07 6245.17Z" fill="#263238"/>
<path d="M2536.21 6198.06C2537.26 6199.86 2533.37 6204.34 2526.79 6206.74C2520.21 6209.13 2514.38 6208.23 2514.08 6206.74C2513.78 6205.24 2518.42 6202.1 2524.1 6200.01C2529.78 6197.91 2535.02 6196.27 2536.21 6198.06Z" fill="#263238"/>
<path d="M2532.92 6185.65C2532.92 6187.89 2526.94 6189.69 2519.16 6189.84C2511.39 6189.99 2505.41 6188.19 2505.56 6186.1C2505.71 6184 2511.69 6182.06 2519.16 6181.91C2526.64 6181.76 2532.92 6183.56 2532.92 6185.65Z" fill="#263238"/>
<path d="M3376.06 2399C3370.08 2392.87 3355.28 2395.86 3355.28 2395.86C3356.76 2387.25 3356.76 2378.45 3355.28 2369.84C3352.58 2361.47 3333.74 2363.11 3333.74 2363.11C3332.87 2356.06 3332.87 2348.93 3333.74 2341.87C3333.89 2340.31 3333.55 2338.74 3332.78 2337.38C3332 2336.01 3330.82 2334.92 3329.4 2334.25C3320.49 2330.61 3310.91 2328.88 3301.29 2329.16C3289.77 2320.94 3336.43 2255.59 3353.78 2234.65C3371.13 2213.71 3367.99 2197.41 3352.58 2197.41C3341.97 2197.41 3287.53 2260.22 3270.78 2281.31C3254.03 2302.39 3209.62 2361.02 3208.12 2314.21C3206.63 2267.4 3187.78 2232.11 3175.97 2226.13C3164.16 2220.14 3151.59 2234.2 3158.02 2247.21C3163.67 2261.99 3167.2 2277.5 3168.49 2293.27C3170.12 2305.84 3169.56 2318.58 3166.85 2330.96C3161.89 2353.98 3155.14 2376.58 3146.66 2398.55H3145.46C3145.46 2398.55 2819.15 2711.55 2795.53 2733.83C2774.44 2753.87 2350.33 2710.06 2265.24 2701.08C2236.32 2696.85 2207.12 2694.85 2177.9 2695.1C2140.96 2696.75 2134.38 2701.98 2097.6 2702.43C2004.69 2703.46 1912 2711.61 1820.34 2726.81C1778.83 2733.86 1740.06 2752.18 1708.26 2779.77C1676.46 2807.35 1652.84 2843.14 1639.98 2883.23C1554.3 3150.92 1360.18 3784.54 1325.94 4140.46C1300.06 4187.39 1276.7 4235.66 1255.95 4285.07C1231.87 4350.57 1237.71 4352.82 1245.78 4354.31C1267.62 4358.35 1292.44 4240.81 1301.71 4269.22C1310.98 4297.63 1254.61 4409.35 1277.49 4412.64C1307.4 4416.82 1331.17 4293 1334.01 4283.13C1336.86 4273.26 1351.66 4276.4 1348.97 4285.67C1344.63 4298.83 1302.61 4438.36 1331.92 4442.84C1348.07 4445.24 1349.87 4415.78 1349.87 4415.78C1349.87 4415.78 1379.78 4282.23 1393.38 4284.92C1406.99 4287.61 1392.49 4366.43 1385.61 4392.75C1378.73 4419.07 1388.3 4432.38 1402.36 4425.94C1411.93 4421.46 1434.81 4341.45 1441.09 4315.43C1447.37 4289.41 1463.07 4217.33 1484.16 4259.05C1505.24 4300.78 1537.25 4325 1550.41 4325.6C1553.37 4325.26 1556.17 4324.04 1558.43 4322.09C1560.7 4320.15 1562.33 4317.57 1563.12 4314.69C1563.91 4311.81 1563.81 4308.76 1562.86 4305.94C1561.9 4303.11 1560.11 4300.64 1557.73 4298.83C1546.42 4287.78 1536.7 4275.19 1528.87 4261.44C1521.9 4250.74 1516.84 4238.89 1513.92 4226.45C1507.89 4201.64 1504.38 4176.29 1503.45 4150.78L1501.06 4135.83C1534.56 3969.98 1631.01 3483.21 1770.24 3172.3L1827.37 3289.85L1852.19 3376.88L1699.95 3752.69L2349.28 3744.17L2252.38 3371.2L2370.07 2982.38C2497.33 2985.22 2824.09 2990.01 2878.52 2965.33C2947.02 2935.42 3301.29 2487.98 3301.29 2487.98C3324.38 2470.04 3346.5 2450.87 3367.54 2430.56C3367.54 2430.56 3389.07 2412.46 3376.06 2399Z" fill="#FFBE9D"/>
<path d="M1671.39 3474.98C1690.23 3410.68 1786.99 3092.74 1786.99 3092.74C1786.99 3092.74 1834.54 3351.91 1821.98 3383.16C1810.43 3409.92 1796.78 3435.72 1781.16 3460.33C1671.39 3627.37 1685.75 3710.97 1685.75 3710.97L2348.98 3690.78C2350.48 3598.06 2295.59 3382.41 2284.23 3348.02C2272.86 3313.62 2310.7 3201.01 2310.7 3201.01C2310.7 3201.01 2385.47 3124.9 2382.78 3085.72C2381.36 3050.52 2377.01 3015.5 2369.77 2981.03L2773.54 2995.99L2760.83 2722.32L2180.89 2664.29C2160.7 2721.27 1978.11 2693.31 1978.11 2693.31C1781.01 2699.89 1768.74 2736.08 1686.79 2799.78C1604.84 2863.49 1469.2 3410.23 1469.2 3410.23L1671.39 3474.98Z" fill="#FF4343"/>
<path d="M2063.5 3410.23C2052 3412.28 2040.3 3412.89 2028.65 3412.02C2006.97 3412.02 1977.21 3410.53 1944.46 3407.24C1911.71 3403.95 1882.1 3399.31 1861.01 3395.13C1849.39 3393.63 1837.99 3390.72 1827.07 3386.45C1838.76 3386.46 1850.42 3387.56 1861.91 3389.74C1883.15 3392.43 1912.61 3396.17 1945.21 3399.46C1977.81 3402.75 2007.42 3405 2028.8 3406.49C2040.46 3406.64 2052.08 3407.89 2063.5 3410.23Z" fill="#263238"/>
<path d="M2108.96 3353.85C2097.46 3359.48 2085.3 3363.65 2072.77 3366.26C2013.11 3381.94 1951.55 3389.24 1889.88 3387.95C1877.11 3388.36 1864.35 3387.16 1851.89 3384.36C1864.49 3382.77 1877.18 3382.12 1889.88 3382.41C1913.35 3381.67 1945.66 3380.02 1981.25 3375.83C2016.84 3371.65 2048.54 3365.67 2070.98 3360.88C2083.43 3357.55 2096.13 3355.2 2108.96 3353.85Z" fill="#263238"/>
<path d="M2332.08 3102.31C2331.78 3113.72 2330.22 3125.05 2327.45 3136.11C2323.56 3156.9 2317.58 3185.31 2309.95 3216.42C2302.32 3247.52 2294.99 3276.24 2288.41 3295.68C2285.77 3306.81 2281.86 3317.59 2276.75 3327.83C2277.58 3316.46 2279.69 3305.23 2283.03 3294.33C2288.71 3271 2295.14 3244.08 2302.32 3214.62C2309.5 3185.16 2316.38 3158.24 2322.06 3134.92C2324.09 3123.69 2327.45 3112.74 2332.08 3102.31Z" fill="#263238"/>
<path d="M1678.42 3436.85C1643.82 3431.51 1609.68 3423.56 1576.28 3413.07C1542.15 3405.09 1508.66 3394.59 1476.08 3381.67C1510.66 3387.1 1544.8 3395.04 1578.22 3405.44C1612.36 3413.4 1645.85 3423.89 1678.42 3436.85Z" fill="#263238"/>
<path d="M2376.95 2977.74C2371.31 2978.71 2365.54 2978.71 2359.9 2977.74C2344.28 2976.14 2328.94 2972.47 2314.29 2966.83C2289.82 2957.63 2267.55 2943.42 2248.91 2925.11C2230.26 2906.8 2215.65 2884.79 2206.02 2860.5C2195.37 2833.78 2190.82 2805.01 2192.71 2776.3C2193.37 2752.63 2200.45 2729.58 2213.19 2709.61C2222.16 2696.16 2235.54 2686.26 2251.03 2681.64C2255.17 2680.5 2259.45 2679.95 2263.74 2680C2266.73 2680 2268.23 2680 2268.23 2680C2268.23 2680 2261.95 2680 2251.93 2684.04C2237.72 2689.28 2225.67 2699.13 2217.68 2712C2197.34 2744 2191.66 2802.48 2213.34 2857.06C2223.44 2882.8 2239.24 2905.91 2259.55 2924.65C2276.2 2939.99 2295.38 2952.34 2316.23 2961.14C2335.8 2968.88 2356.16 2974.44 2376.95 2977.74Z" fill="#263238"/>
<path d="M2725.54 2990.6C2721.8 2944.75 2720.6 2898.71 2721.95 2852.72C2720.78 2806.77 2722.18 2760.79 2726.14 2714.99C2729.88 2760.8 2731.08 2806.78 2729.73 2852.72C2730.98 2898.73 2729.58 2944.76 2725.54 2990.6Z" fill="#263238"/>
<path d="M2177 2681.04C2178.65 2647.7 2182.09 2610.01 2182.09 2610.01C2182.09 2610.01 2264.64 2600.89 2269.57 2515.65C2274.51 2430.41 2269.57 2233.75 2269.57 2233.75L2120.03 2157.19L1954.03 2287.74L1979.6 2713.94L2131.84 2723.66C2143.48 2723.99 2154.77 2719.68 2163.23 2711.69C2171.7 2703.7 2176.65 2692.68 2177 2681.04Z" fill="#FFBE9D"/>
<path d="M2191.81 2448.2C2191.81 2448.2 2191.81 2449.85 2190.46 2451.79C2189.35 2453.2 2187.91 2454.32 2186.27 2455.05C2184.63 2455.78 2182.83 2456.1 2181.04 2455.98C2171.47 2455.98 2162.2 2444.91 2158.91 2432.05C2157.35 2425.82 2157.35 2419.29 2158.91 2413.06C2159.22 2410.34 2160.2 2407.74 2161.76 2405.49C2163.33 2403.24 2165.43 2401.42 2167.88 2400.2C2169.89 2399.37 2172.15 2399.37 2174.16 2400.2C2175.65 2400.94 2176.86 2402.15 2177.6 2403.64C2178.65 2406.18 2177.6 2407.82 2177.6 2407.67C2177.6 2407.53 2177.6 2406.18 2176.11 2404.68C2175.33 2403.61 2174.18 2402.87 2172.88 2402.59C2171.58 2402.32 2170.23 2402.53 2169.08 2403.19C2167.24 2404.3 2165.72 2405.85 2164.65 2407.71C2163.58 2409.57 2162.99 2411.66 2162.95 2413.81C2161.69 2419.37 2161.69 2425.14 2162.95 2430.7C2165.94 2442.37 2174.01 2451.79 2181.19 2452.69C2182.6 2452.88 2184.02 2452.78 2185.39 2452.39C2186.75 2452.01 2188.02 2451.34 2189.12 2450.44C2190.91 2449.25 2191.51 2448.05 2191.81 2448.2Z" fill="#EB996E"/>
<path d="M2320.87 2187.69C2309.35 2148.51 2267.63 2129.07 2229.64 2118.3C2171.77 2101.85 2109.26 2094.68 2052.73 2115.46C1996.2 2136.25 1928.31 2172.74 1928.31 2235.1C1894.96 2232.41 1875.82 2261.57 1862.66 2297.76C1854.24 2319.81 1849.2 2343 1847.7 2366.55C1843.52 2448.2 1820.64 2560.96 1767.7 2620.78C1737.79 2654.13 1696.36 2677.16 1679.32 2718.73C1664.36 2754.77 1672.14 2797.54 1658.23 2834.03C1645.82 2866.18 1618.45 2889.06 1598.41 2917.03C1578 2948.75 1565.98 2985.15 1563.5 3022.79C1561.01 3060.43 1568.14 3098.09 1584.2 3132.22C1600.39 3165.48 1623.17 3195.1 1651.17 3219.26C1679.17 3243.43 1711.79 3261.65 1747.06 3272.8C1816.91 3294.05 1891.4 3294.78 1961.66 3274.89C2014.38 3262.28 2063.57 3237.9 2105.52 3203.56C2148.45 3168.5 2177.93 3119.69 2188.97 3065.38C2199.58 3004.36 2182.54 2942.3 2169.83 2881.59C2130.05 2689.72 2141.41 2679.7 2191.66 2501.59C2192.86 2498.45 2193.45 2495.16 2194.35 2492.02C2195.25 2488.88 2195.7 2487.38 2196.29 2484.99C2197.72 2477.95 2198.47 2470.79 2198.54 2463.6C2191.2 2466.33 2183.23 2466.91 2175.58 2465.27C2167.92 2463.63 2160.89 2459.83 2155.32 2454.33C2149.73 2448.47 2145.84 2441.2 2144.05 2433.3C2142.26 2425.41 2142.64 2417.17 2145.15 2409.47C2148.68 2401.05 2153.94 2393.46 2160.58 2387.2C2167.23 2380.94 2175.12 2376.15 2183.73 2373.13C2200.33 2366.25 2218.13 2362.66 2234.43 2355.03C2268.97 2338.58 2292.9 2304.49 2309.2 2268.75C2322.6 2243.98 2326.74 2215.24 2320.87 2187.69Z" fill="#263238"/>
<path d="M2197.79 2452.24C2200.95 2456.91 2203.56 2461.93 2205.57 2467.19C2210.05 2476.62 2216.04 2489.92 2222.62 2505.33L2223.81 2508.17H2220.67L2205.72 2509.52C2195.4 2509.52 2186.73 2511.46 2176.56 2511.31C2175.67 2511.11 2174.85 2510.69 2174.17 2510.09C2173.49 2509.49 2172.97 2508.72 2172.67 2507.87C2172.22 2506.51 2172.22 2505.04 2172.67 2503.68C2173.01 2501.67 2173.46 2499.67 2174.01 2497.7L2176.71 2487.08C2178.06 2480 2180.16 2473.08 2182.99 2466.45C2182.71 2473.67 2181.66 2480.84 2179.85 2487.83L2177.75 2498.45C2177 2502.04 2175.66 2507.57 2177.75 2507.12C2185.23 2507.12 2195.85 2505.48 2205.72 2504.88L2220.67 2503.53L2218.73 2506.82C2212.3 2491.87 2206.91 2477.81 2203.77 2468.09C2201.02 2463.13 2199 2457.79 2197.79 2452.24Z" fill="#FF4343"/>
<path d="M1685.75 3710.97L2348.98 3690.78L2637.6 4817.46L2584.52 6109.83H2233.83L2276.75 4844.97L2020.28 4060.6L2059.76 6159.93L1705.34 6165.16L1668.1 4191.9C1666.45 4137.02 1648.51 4013.35 1655.24 3958.91L1685.75 3710.97Z" fill="#263238"/>
<path d="M2108.51 4076.61C2097.66 4077.29 2086.76 4076.64 2076.06 4074.66C2056.02 4072.27 2028.66 4068.08 1998.6 4062.1C1968.54 4056.12 1941.62 4049.24 1922.18 4043.71C1911.79 4041.42 1901.73 4037.8 1892.27 4032.94C1892.27 4030.7 1941.02 4042.36 2000.84 4054.47C2060.66 4066.59 2108.81 4074.36 2108.51 4076.61Z" fill="#455A64"/>
<path d="M2580.93 6038.94C2580.93 6041.04 2501.52 6042.83 2403.57 6042.83C2305.61 6042.83 2226.05 6041.04 2226.05 6038.94C2226.05 6036.85 2305.46 6035.06 2403.57 6035.06C2501.67 6035.06 2580.93 6036.7 2580.93 6038.94Z" fill="#455A64"/>
<path d="M2056.62 6105.34C2056.62 6107.59 1979.45 6109.23 1884.34 6109.23C1789.23 6109.23 1712.21 6107.59 1712.21 6105.34C1712.21 6103.1 1789.38 6101.45 1884.34 6101.45C1979.3 6101.45 2056.62 6103.25 2056.62 6105.34Z" fill="#455A64"/>
<path d="M2010.86 6099.96C2008.76 6099.96 1999.49 5641.3 1990.07 5075.57C1980.65 4509.84 1975.12 4050.88 1977.06 4050.88C1979.01 4050.88 1988.58 4509.39 1997.85 5075.42C2007.12 5641.45 2013.1 6099.96 2010.86 6099.96Z" fill="#455A64"/>
<path d="M2533.82 6038.95C2533.66 6036.9 2533.66 6034.85 2533.82 6032.81V6014.87C2533.82 5998.72 2535.02 5975.54 2535.91 5946.08C2538.01 5886.26 2541 5799.37 2544.74 5692.9C2552.81 5478.75 2564.18 5183.54 2576.59 4857.68C2576.59 4854.54 2576.59 4851.55 2576.59 4848.86V4849.91C2498.08 4535.86 2427.05 4250.83 2375.45 4044.6L2315.63 3800.69C2308.75 3772.13 2303.52 3749.85 2299.78 3734.3C2297.99 3726.97 2296.79 3721.28 2295.74 3716.95C2295.16 3715 2294.81 3712.99 2294.7 3710.97C2295.47 3712.85 2296.07 3714.8 2296.49 3716.8C2297.69 3720.99 2299.18 3726.67 2301.28 3733.85C2305.31 3748.8 2311.15 3771.53 2318.62 3799.95C2333.58 3857.67 2354.66 3940.82 2380.99 4043.26C2433.03 4249.33 2504.81 4533.62 2584.37 4848.11V4849.16C2584.37 4851.85 2584.37 4854.99 2584.37 4857.98C2571.06 5183.84 2558.94 5478.9 2550.12 5693.05C2545.49 5799.67 2541.6 5885.96 2538.91 5946.08C2537.41 5975.99 2536.21 5998.72 2535.47 6014.87C2535.47 6022.5 2534.57 6028.48 2534.42 6032.81C2534.44 6034.87 2534.24 6036.93 2533.82 6038.95Z" fill="#455A64"/>
<path d="M2419.42 4822.54C2394.23 4830.82 2368.28 4836.58 2341.95 4839.74C2309.65 4845.27 2282.14 4849.16 2269.72 4849.76V4846.77C2273.76 4847.96 2275.85 4848.71 2275.85 4849.31C2275.85 4849.91 2273.31 4849.31 2269.13 4849.31H2260.15L2269.13 4846.62C2280.79 4843.18 2308.31 4837.49 2340.61 4831.66C2366.52 4826.04 2392.91 4822.99 2419.42 4822.54Z" fill="#455A64"/>
<path d="M2413.29 4865.46C2389.96 4866.53 2366.59 4865.48 2343.45 4862.32C2320.09 4861.84 2296.82 4859.29 2273.91 4854.69C2320.65 4850.88 2367.69 4854.51 2413.29 4865.46Z" fill="#455A64"/>
<path opacity="0.2" d="M1682.9 3734.74C1690.76 3744.83 1700.65 3753.15 1711.94 3759.15C1723.23 3765.15 1735.65 3768.71 1748.41 3769.59C1775.12 3772.75 1802.14 3772.25 1828.71 3768.09C1999.94 3749.1 2181.34 3731.6 2348.98 3690.78C2131.99 3702.89 1902.74 3698.85 1685.75 3710.97L1683.5 3729.51" fill="black"/>
<g opacity="0.2">
<path d="M1906.48 4040.56L2028.8 4515.22L2020.28 4060.6L1906.48 4040.56Z" fill="black"/>
</g>
</svg>
